<mxfile host="app.diagrams.net" agent="Mozilla/5.0 (X11; Linux x86_64; rv:129.0) Gecko/20100101 Firefox/129.0" version="24.7.7">
  <diagram id="C5RBs43oDa-KdzZeNtuy" name="Page-1">
    <mxGraphModel dx="1810" dy="647" grid="1" gridSize="10" guides="1" tooltips="1" connect="1" arrows="1" fold="1" page="1" pageScale="1" pageWidth="827" pageHeight="1169" math="0" shadow="0">
      <root>
        <mxCell id="WIyWlLk6GJQsqaUBKTNV-0" />
        <mxCell id="WIyWlLk6GJQsqaUBKTNV-1" parent="WIyWlLk6GJQsqaUBKTNV-0" />
        <mxCell id="BRY9QioQyw7Z8n5FK-pE-42" value="" style="rounded=0;whiteSpace=wrap;html=1;" vertex="1" parent="WIyWlLk6GJQsqaUBKTNV-1">
          <mxGeometry x="-6" y="40" width="840" height="240" as="geometry" />
        </mxCell>
        <mxCell id="BRY9QioQyw7Z8n5FK-pE-27" value="Welcome to your lunchbox! What do you wish to do?" style="text;html=1;align=center;verticalAlign=middle;whiteSpace=wrap;rounded=1;fontStyle=1;fontSize=15;strokeColor=#6c8ebf;strokeWidth=2;fillColor=#dae8fc;spacingTop=2;" vertex="1" parent="WIyWlLk6GJQsqaUBKTNV-1">
          <mxGeometry x="214" y="130" width="400" height="40" as="geometry" />
        </mxCell>
        <mxCell id="BRY9QioQyw7Z8n5FK-pE-28" value="Add new recipe" style="text;html=1;align=center;verticalAlign=middle;whiteSpace=wrap;rounded=1;fillColor=#d5e8d4;strokeColor=#82b366;spacingTop=2;fontStyle=1" vertex="1" parent="WIyWlLk6GJQsqaUBKTNV-1">
          <mxGeometry x="34" y="210" width="120" height="40" as="geometry" />
        </mxCell>
        <mxCell id="BRY9QioQyw7Z8n5FK-pE-29" value="Modify recipe" style="text;html=1;align=center;verticalAlign=middle;whiteSpace=wrap;rounded=1;fillColor=#d5e8d4;strokeColor=#82b366;spacingTop=2;fontStyle=1" vertex="1" parent="WIyWlLk6GJQsqaUBKTNV-1">
          <mxGeometry x="194" y="210" width="120" height="40" as="geometry" />
        </mxCell>
        <mxCell id="BRY9QioQyw7Z8n5FK-pE-30" value="Search for recipe" style="text;html=1;align=center;verticalAlign=middle;whiteSpace=wrap;rounded=1;fillColor=#d5e8d4;strokeColor=#82b366;spacingTop=2;fontStyle=1" vertex="1" parent="WIyWlLk6GJQsqaUBKTNV-1">
          <mxGeometry x="354" y="210" width="120" height="40" as="geometry" />
        </mxCell>
        <mxCell id="BRY9QioQyw7Z8n5FK-pE-31" value="List all recipes" style="text;html=1;align=center;verticalAlign=middle;whiteSpace=wrap;rounded=1;fillColor=#d5e8d4;strokeColor=#82b366;spacingTop=2;fontStyle=1" vertex="1" parent="WIyWlLk6GJQsqaUBKTNV-1">
          <mxGeometry x="514" y="210" width="120" height="40" as="geometry" />
        </mxCell>
        <mxCell id="BRY9QioQyw7Z8n5FK-pE-32" value="Delete existing recipe" style="text;html=1;align=center;verticalAlign=middle;whiteSpace=wrap;rounded=1;fillColor=#d5e8d4;strokeColor=#82b366;spacingTop=2;fontStyle=1" vertex="1" parent="WIyWlLk6GJQsqaUBKTNV-1">
          <mxGeometry x="674" y="210" width="120" height="40" as="geometry" />
        </mxCell>
        <mxCell id="BRY9QioQyw7Z8n5FK-pE-33" value="Exit" style="text;html=1;align=center;verticalAlign=middle;whiteSpace=wrap;rounded=1;fillColor=#f8cecc;strokeColor=#b85450;spacingTop=2;fontStyle=1" vertex="1" parent="WIyWlLk6GJQsqaUBKTNV-1">
          <mxGeometry x="674" y="130" width="120" height="40" as="geometry" />
        </mxCell>
        <mxCell id="BRY9QioQyw7Z8n5FK-pE-34" value="" style="endArrow=classic;html=1;rounded=0;entryX=0.5;entryY=0;entryDx=0;entryDy=0;strokeWidth=2;exitX=0;exitY=1;exitDx=0;exitDy=0;edgeStyle=orthogonalEdgeStyle;" edge="1" parent="WIyWlLk6GJQsqaUBKTNV-1" source="BRY9QioQyw7Z8n5FK-pE-27" target="BRY9QioQyw7Z8n5FK-pE-28">
          <mxGeometry width="50" height="50" relative="1" as="geometry">
            <mxPoint x="414" y="170" as="sourcePoint" />
            <mxPoint x="234" y="200" as="targetPoint" />
          </mxGeometry>
        </mxCell>
        <mxCell id="BRY9QioQyw7Z8n5FK-pE-35" value="" style="endArrow=classic;html=1;rounded=0;exitX=0.25;exitY=1;exitDx=0;exitDy=0;entryX=0.5;entryY=0;entryDx=0;entryDy=0;strokeWidth=2;edgeStyle=orthogonalEdgeStyle;" edge="1" parent="WIyWlLk6GJQsqaUBKTNV-1" source="BRY9QioQyw7Z8n5FK-pE-27" target="BRY9QioQyw7Z8n5FK-pE-29">
          <mxGeometry width="50" height="50" relative="1" as="geometry">
            <mxPoint x="224" y="180" as="sourcePoint" />
            <mxPoint x="134" y="220" as="targetPoint" />
          </mxGeometry>
        </mxCell>
        <mxCell id="BRY9QioQyw7Z8n5FK-pE-38" value="" style="endArrow=classic;html=1;rounded=0;entryX=0.5;entryY=0;entryDx=0;entryDy=0;strokeWidth=2;edgeStyle=orthogonalEdgeStyle;" edge="1" parent="WIyWlLk6GJQsqaUBKTNV-1" target="BRY9QioQyw7Z8n5FK-pE-30">
          <mxGeometry width="50" height="50" relative="1" as="geometry">
            <mxPoint x="414" y="170" as="sourcePoint" />
            <mxPoint x="264" y="220" as="targetPoint" />
          </mxGeometry>
        </mxCell>
        <mxCell id="BRY9QioQyw7Z8n5FK-pE-39" value="" style="endArrow=classic;html=1;rounded=0;entryX=0.5;entryY=0;entryDx=0;entryDy=0;strokeWidth=2;exitX=0.75;exitY=1;exitDx=0;exitDy=0;edgeStyle=orthogonalEdgeStyle;" edge="1" parent="WIyWlLk6GJQsqaUBKTNV-1" source="BRY9QioQyw7Z8n5FK-pE-27" target="BRY9QioQyw7Z8n5FK-pE-31">
          <mxGeometry width="50" height="50" relative="1" as="geometry">
            <mxPoint x="414" y="170" as="sourcePoint" />
            <mxPoint x="424" y="220" as="targetPoint" />
          </mxGeometry>
        </mxCell>
        <mxCell id="BRY9QioQyw7Z8n5FK-pE-40" value="" style="endArrow=classic;html=1;rounded=0;entryX=0.5;entryY=0;entryDx=0;entryDy=0;strokeWidth=2;exitX=1;exitY=1;exitDx=0;exitDy=0;edgeStyle=orthogonalEdgeStyle;" edge="1" parent="WIyWlLk6GJQsqaUBKTNV-1" source="BRY9QioQyw7Z8n5FK-pE-27" target="BRY9QioQyw7Z8n5FK-pE-32">
          <mxGeometry width="50" height="50" relative="1" as="geometry">
            <mxPoint x="424" y="180" as="sourcePoint" />
            <mxPoint x="584" y="220" as="targetPoint" />
          </mxGeometry>
        </mxCell>
        <mxCell id="BRY9QioQyw7Z8n5FK-pE-41" value="" style="endArrow=classic;html=1;rounded=0;entryX=0;entryY=0.5;entryDx=0;entryDy=0;strokeWidth=2;exitX=1;exitY=0.5;exitDx=0;exitDy=0;edgeStyle=orthogonalEdgeStyle;" edge="1" parent="WIyWlLk6GJQsqaUBKTNV-1" source="BRY9QioQyw7Z8n5FK-pE-27" target="BRY9QioQyw7Z8n5FK-pE-33">
          <mxGeometry width="50" height="50" relative="1" as="geometry">
            <mxPoint x="424" y="180" as="sourcePoint" />
            <mxPoint x="744" y="220" as="targetPoint" />
          </mxGeometry>
        </mxCell>
        <mxCell id="BRY9QioQyw7Z8n5FK-pE-43" value="&lt;b style=&quot;font-size: 22px;&quot;&gt;Main&lt;/b&gt;" style="text;html=1;align=center;verticalAlign=middle;whiteSpace=wrap;rounded=0;strokeColor=default;fontSize=22;spacingTop=2;" vertex="1" parent="WIyWlLk6GJQsqaUBKTNV-1">
          <mxGeometry x="-6" y="40" width="840" height="60" as="geometry" />
        </mxCell>
        <mxCell id="BRY9QioQyw7Z8n5FK-pE-44" value="" style="rounded=0;whiteSpace=wrap;html=1;" vertex="1" parent="WIyWlLk6GJQsqaUBKTNV-1">
          <mxGeometry x="-650" y="40" width="604" height="480" as="geometry" />
        </mxCell>
        <mxCell id="BRY9QioQyw7Z8n5FK-pE-45" value="&lt;div&gt;Add&lt;/div&gt;" style="text;html=1;align=center;verticalAlign=middle;whiteSpace=wrap;rounded=0;fontSize=22;fontStyle=1;strokeColor=default;spacingTop=2;" vertex="1" parent="WIyWlLk6GJQsqaUBKTNV-1">
          <mxGeometry x="-650" y="40" width="604" height="60" as="geometry" />
        </mxCell>
        <mxCell id="BRY9QioQyw7Z8n5FK-pE-46" value="" style="endArrow=classic;html=1;rounded=0;entryX=1;entryY=0.5;entryDx=0;entryDy=0;strokeWidth=2;exitX=0;exitY=0.5;exitDx=0;exitDy=0;edgeStyle=orthogonalEdgeStyle;" edge="1" parent="WIyWlLk6GJQsqaUBKTNV-1" source="BRY9QioQyw7Z8n5FK-pE-28" target="BRY9QioQyw7Z8n5FK-pE-58">
          <mxGeometry width="50" height="50" relative="1" as="geometry">
            <mxPoint x="94" y="240" as="sourcePoint" />
            <mxPoint x="144" y="190" as="targetPoint" />
            <Array as="points">
              <mxPoint x="-30" y="230" />
              <mxPoint x="-30" y="150" />
            </Array>
          </mxGeometry>
        </mxCell>
        <mxCell id="BRY9QioQyw7Z8n5FK-pE-47" value="" style="rounded=0;whiteSpace=wrap;html=1;" vertex="1" parent="WIyWlLk6GJQsqaUBKTNV-1">
          <mxGeometry x="-6" y="320" width="400" height="280" as="geometry" />
        </mxCell>
        <mxCell id="BRY9QioQyw7Z8n5FK-pE-48" value="Modify" style="text;html=1;align=center;verticalAlign=middle;whiteSpace=wrap;rounded=0;fontSize=22;fontStyle=1;strokeColor=default;spacingTop=2;" vertex="1" parent="WIyWlLk6GJQsqaUBKTNV-1">
          <mxGeometry x="-6" y="320" width="400" height="60" as="geometry" />
        </mxCell>
        <mxCell id="BRY9QioQyw7Z8n5FK-pE-49" value="" style="rounded=0;whiteSpace=wrap;html=1;" vertex="1" parent="WIyWlLk6GJQsqaUBKTNV-1">
          <mxGeometry x="434" y="320" width="400" height="280" as="geometry" />
        </mxCell>
        <mxCell id="BRY9QioQyw7Z8n5FK-pE-50" value="&lt;div&gt;Add&lt;/div&gt;" style="text;html=1;align=center;verticalAlign=middle;whiteSpace=wrap;rounded=0;fontSize=22;fontStyle=1;strokeColor=default;spacingTop=2;" vertex="1" parent="WIyWlLk6GJQsqaUBKTNV-1">
          <mxGeometry x="434" y="320" width="400" height="60" as="geometry" />
        </mxCell>
        <mxCell id="BRY9QioQyw7Z8n5FK-pE-51" value="" style="rounded=0;whiteSpace=wrap;html=1;" vertex="1" parent="WIyWlLk6GJQsqaUBKTNV-1">
          <mxGeometry x="874" y="320" width="400" height="280" as="geometry" />
        </mxCell>
        <mxCell id="BRY9QioQyw7Z8n5FK-pE-52" value="&lt;div&gt;Add&lt;/div&gt;" style="text;html=1;align=center;verticalAlign=middle;whiteSpace=wrap;rounded=0;fontSize=22;fontStyle=1;strokeColor=default;spacingTop=2;" vertex="1" parent="WIyWlLk6GJQsqaUBKTNV-1">
          <mxGeometry x="874" y="320" width="400" height="60" as="geometry" />
        </mxCell>
        <mxCell id="BRY9QioQyw7Z8n5FK-pE-53" value="" style="endArrow=classic;html=1;rounded=0;entryX=0.5;entryY=0;entryDx=0;entryDy=0;strokeWidth=2;exitX=0.5;exitY=1;exitDx=0;exitDy=0;edgeStyle=orthogonalEdgeStyle;" edge="1" parent="WIyWlLk6GJQsqaUBKTNV-1" source="BRY9QioQyw7Z8n5FK-pE-29" target="BRY9QioQyw7Z8n5FK-pE-48">
          <mxGeometry width="50" height="50" relative="1" as="geometry">
            <mxPoint x="104" y="260" as="sourcePoint" />
            <mxPoint x="-236" y="330" as="targetPoint" />
          </mxGeometry>
        </mxCell>
        <mxCell id="BRY9QioQyw7Z8n5FK-pE-56" value="" style="endArrow=classic;html=1;rounded=0;entryX=0.5;entryY=0;entryDx=0;entryDy=0;strokeWidth=2;exitX=0.5;exitY=1;exitDx=0;exitDy=0;edgeStyle=orthogonalEdgeStyle;" edge="1" parent="WIyWlLk6GJQsqaUBKTNV-1" source="BRY9QioQyw7Z8n5FK-pE-31" target="BRY9QioQyw7Z8n5FK-pE-50">
          <mxGeometry width="50" height="50" relative="1" as="geometry">
            <mxPoint x="364" y="290" as="sourcePoint" />
            <mxPoint x="204" y="330" as="targetPoint" />
          </mxGeometry>
        </mxCell>
        <mxCell id="BRY9QioQyw7Z8n5FK-pE-57" value="" style="endArrow=classic;html=1;rounded=0;entryX=0.5;entryY=0;entryDx=0;entryDy=0;strokeWidth=2;exitX=0.5;exitY=1;exitDx=0;exitDy=0;edgeStyle=orthogonalEdgeStyle;" edge="1" parent="WIyWlLk6GJQsqaUBKTNV-1" source="BRY9QioQyw7Z8n5FK-pE-32" target="BRY9QioQyw7Z8n5FK-pE-52">
          <mxGeometry width="50" height="50" relative="1" as="geometry">
            <mxPoint x="584" y="260" as="sourcePoint" />
            <mxPoint x="644" y="330" as="targetPoint" />
          </mxGeometry>
        </mxCell>
        <mxCell id="BRY9QioQyw7Z8n5FK-pE-58" value="What is the name of your recipe?" style="text;html=1;align=center;verticalAlign=middle;whiteSpace=wrap;rounded=1;fontStyle=1;fontSize=15;strokeColor=#6c8ebf;strokeWidth=2;fillColor=#dae8fc;spacingTop=2;" vertex="1" parent="WIyWlLk6GJQsqaUBKTNV-1">
          <mxGeometry x="-478.5" y="130" width="261" height="40" as="geometry" />
        </mxCell>
        <mxCell id="BRY9QioQyw7Z8n5FK-pE-61" value="Recipe name already taken" style="text;html=1;align=center;verticalAlign=middle;whiteSpace=wrap;rounded=1;fontStyle=1;fontSize=15;strokeColor=#6c8ebf;strokeWidth=2;fillColor=#dae8fc;spacingTop=2;" vertex="1" parent="WIyWlLk6GJQsqaUBKTNV-1">
          <mxGeometry x="-610" y="210" width="223" height="40" as="geometry" />
        </mxCell>
        <mxCell id="BRY9QioQyw7Z8n5FK-pE-62" value="&lt;div&gt;Recipe name already taken&lt;/div&gt;" style="text;html=1;align=center;verticalAlign=middle;whiteSpace=wrap;rounded=1;fontStyle=1;fontSize=15;strokeColor=#6c8ebf;strokeWidth=2;fillColor=#dae8fc;spacingTop=2;" vertex="1" parent="WIyWlLk6GJQsqaUBKTNV-1">
          <mxGeometry x="-310" y="210" width="220" height="40" as="geometry" />
        </mxCell>
        <mxCell id="BRY9QioQyw7Z8n5FK-pE-64" value="" style="endArrow=classic;html=1;rounded=0;exitX=0.75;exitY=1;exitDx=0;exitDy=0;entryX=0.5;entryY=0;entryDx=0;entryDy=0;strokeWidth=2;edgeStyle=orthogonalEdgeStyle;" edge="1" parent="WIyWlLk6GJQsqaUBKTNV-1" source="BRY9QioQyw7Z8n5FK-pE-58" target="BRY9QioQyw7Z8n5FK-pE-62">
          <mxGeometry width="50" height="50" relative="1" as="geometry">
            <mxPoint x="-570" y="200" as="sourcePoint" />
            <mxPoint x="-520" y="150" as="targetPoint" />
          </mxGeometry>
        </mxCell>
        <mxCell id="BRY9QioQyw7Z8n5FK-pE-65" value="" style="endArrow=classic;html=1;rounded=0;exitX=0.25;exitY=1;exitDx=0;exitDy=0;strokeWidth=2;edgeStyle=orthogonalEdgeStyle;" edge="1" parent="WIyWlLk6GJQsqaUBKTNV-1" source="BRY9QioQyw7Z8n5FK-pE-58" target="BRY9QioQyw7Z8n5FK-pE-61">
          <mxGeometry width="50" height="50" relative="1" as="geometry">
            <mxPoint x="-273" y="180" as="sourcePoint" />
            <mxPoint x="-192" y="210" as="targetPoint" />
          </mxGeometry>
        </mxCell>
        <mxCell id="BRY9QioQyw7Z8n5FK-pE-68" value="Try different name" style="text;html=1;align=center;verticalAlign=middle;whiteSpace=wrap;rounded=1;fillColor=#d5e8d4;strokeColor=#82b366;spacingTop=2;fontStyle=1" vertex="1" parent="WIyWlLk6GJQsqaUBKTNV-1">
          <mxGeometry x="-220" y="270" width="120" height="40" as="geometry" />
        </mxCell>
        <mxCell id="BRY9QioQyw7Z8n5FK-pE-69" value="Modify recipe" style="text;html=1;align=center;verticalAlign=middle;whiteSpace=wrap;rounded=1;fillColor=#d5e8d4;strokeColor=#82b366;spacingTop=2;fontStyle=1" vertex="1" parent="WIyWlLk6GJQsqaUBKTNV-1">
          <mxGeometry x="-220" y="330" width="120" height="40" as="geometry" />
        </mxCell>
        <mxCell id="BRY9QioQyw7Z8n5FK-pE-70" value="Delete recipe" style="text;html=1;align=center;verticalAlign=middle;whiteSpace=wrap;rounded=1;fillColor=#d5e8d4;strokeColor=#82b366;spacingTop=2;fontStyle=1" vertex="1" parent="WIyWlLk6GJQsqaUBKTNV-1">
          <mxGeometry x="-220" y="390" width="120" height="40" as="geometry" />
        </mxCell>
        <mxCell id="BRY9QioQyw7Z8n5FK-pE-71" value="&lt;div&gt;Exit&lt;/div&gt;" style="text;html=1;align=center;verticalAlign=middle;whiteSpace=wrap;rounded=1;fillColor=#f8cecc;strokeColor=#b85450;spacingTop=2;fontStyle=1" vertex="1" parent="WIyWlLk6GJQsqaUBKTNV-1">
          <mxGeometry x="-220" y="450" width="120" height="40" as="geometry" />
        </mxCell>
        <mxCell id="BRY9QioQyw7Z8n5FK-pE-72" value="" style="endArrow=classic;html=1;rounded=0;exitX=0.25;exitY=1;exitDx=0;exitDy=0;entryX=0;entryY=0.5;entryDx=0;entryDy=0;strokeWidth=2;edgeStyle=elbowEdgeStyle;" edge="1" parent="WIyWlLk6GJQsqaUBKTNV-1" source="BRY9QioQyw7Z8n5FK-pE-62" target="BRY9QioQyw7Z8n5FK-pE-68">
          <mxGeometry width="50" height="50" relative="1" as="geometry">
            <mxPoint x="-265" y="250" as="sourcePoint" />
            <mxPoint x="-410" y="370" as="targetPoint" />
            <Array as="points">
              <mxPoint x="-255" y="270" />
            </Array>
          </mxGeometry>
        </mxCell>
        <mxCell id="BRY9QioQyw7Z8n5FK-pE-73" value="" style="endArrow=classic;html=1;rounded=0;exitX=0.25;exitY=1;exitDx=0;exitDy=0;entryX=0;entryY=0.5;entryDx=0;entryDy=0;strokeWidth=2;edgeStyle=elbowEdgeStyle;" edge="1" parent="WIyWlLk6GJQsqaUBKTNV-1" target="BRY9QioQyw7Z8n5FK-pE-69">
          <mxGeometry width="50" height="50" relative="1" as="geometry">
            <mxPoint x="-255" y="290" as="sourcePoint" />
            <mxPoint x="-220" y="330" as="targetPoint" />
            <Array as="points">
              <mxPoint x="-255" y="310" />
            </Array>
          </mxGeometry>
        </mxCell>
        <mxCell id="BRY9QioQyw7Z8n5FK-pE-74" value="" style="endArrow=classic;html=1;rounded=0;exitX=0.25;exitY=1;exitDx=0;exitDy=0;entryX=0;entryY=0.5;entryDx=0;entryDy=0;strokeWidth=2;edgeStyle=elbowEdgeStyle;" edge="1" parent="WIyWlLk6GJQsqaUBKTNV-1">
          <mxGeometry width="50" height="50" relative="1" as="geometry">
            <mxPoint x="-255" y="350" as="sourcePoint" />
            <mxPoint x="-220" y="410" as="targetPoint" />
            <Array as="points">
              <mxPoint x="-255" y="370" />
            </Array>
          </mxGeometry>
        </mxCell>
        <mxCell id="BRY9QioQyw7Z8n5FK-pE-76" value="" style="endArrow=classic;html=1;rounded=0;exitX=0.25;exitY=1;exitDx=0;exitDy=0;entryX=0;entryY=0.5;entryDx=0;entryDy=0;strokeWidth=2;edgeStyle=elbowEdgeStyle;" edge="1" parent="WIyWlLk6GJQsqaUBKTNV-1">
          <mxGeometry width="50" height="50" relative="1" as="geometry">
            <mxPoint x="-255" y="410" as="sourcePoint" />
            <mxPoint x="-220" y="470" as="targetPoint" />
            <Array as="points">
              <mxPoint x="-255" y="430" />
            </Array>
          </mxGeometry>
        </mxCell>
        <mxCell id="BRY9QioQyw7Z8n5FK-pE-78" value="" style="endArrow=classic;html=1;rounded=0;exitX=0.75;exitY=1;exitDx=0;exitDy=0;strokeWidth=2;edgeStyle=orthogonalEdgeStyle;" edge="1" parent="WIyWlLk6GJQsqaUBKTNV-1">
          <mxGeometry width="50" height="50" relative="1" as="geometry">
            <mxPoint x="-100" y="290" as="sourcePoint" />
            <mxPoint x="-280" y="130" as="targetPoint" />
            <Array as="points">
              <mxPoint x="-70" y="290" />
              <mxPoint x="-70" y="110" />
              <mxPoint x="-280" y="110" />
              <mxPoint x="-280" y="130" />
            </Array>
          </mxGeometry>
        </mxCell>
        <mxCell id="BRY9QioQyw7Z8n5FK-pE-79" value="" style="endArrow=classic;html=1;rounded=0;exitX=0;exitY=0.5;exitDx=0;exitDy=0;strokeWidth=2;edgeStyle=orthogonalEdgeStyle;" edge="1" parent="WIyWlLk6GJQsqaUBKTNV-1" source="BRY9QioQyw7Z8n5FK-pE-61">
          <mxGeometry width="50" height="50" relative="1" as="geometry">
            <mxPoint x="-233" y="290" as="sourcePoint" />
            <mxPoint x="-413" y="130" as="targetPoint" />
            <Array as="points">
              <mxPoint x="-630" y="230" />
              <mxPoint x="-630" y="110" />
              <mxPoint x="-413" y="110" />
            </Array>
          </mxGeometry>
        </mxCell>
        <mxCell id="BRY9QioQyw7Z8n5FK-pE-80" value="Where is the .csv for this recipe?" style="text;html=1;align=center;verticalAlign=middle;whiteSpace=wrap;rounded=1;fontStyle=1;fontSize=15;strokeColor=#6c8ebf;strokeWidth=2;fillColor=#dae8fc;spacingTop=2;" vertex="1" parent="WIyWlLk6GJQsqaUBKTNV-1">
          <mxGeometry x="-610" y="290" width="261" height="40" as="geometry" />
        </mxCell>
      </root>
    </mxGraphModel>
  </diagram>
</mxfile>
